# Blender v2.79 (sub 0) OBJ File: 'latarka.blend'
# www.blender.org
mtllib latarkaBody.mtl
o Cylinder.001
v -0.000000 1.000000 5.450871
v 0.195090 0.980785 5.450871
v 0.382683 0.923879 5.450871
v 0.555570 0.831469 5.450871
v 0.707107 0.707106 5.450871
v 0.831470 0.555570 5.450871
v 0.923879 0.382683 5.450871
v 0.980785 0.195090 5.450871
v 1.000000 -0.000000 5.450871
v 0.980785 -0.195090 5.450871
v 0.923879 -0.382684 5.450871
v 0.831470 -0.555570 5.450871
v 0.707107 -0.707107 5.450871
v 0.555570 -0.831470 5.450871
v 0.382683 -0.923880 5.450871
v 0.195090 -0.980786 5.450871
v -0.000000 -1.000000 5.450871
v -0.195091 -0.980785 5.450871
v -0.382684 -0.923880 5.450871
v -0.555571 -0.831470 5.450871
v -0.707107 -0.707107 5.450871
v -0.831470 -0.555570 5.450871
v -0.923880 -0.382683 5.450871
v -0.980786 -0.195090 5.450871
v -1.000000 0.000001 5.450871
v -0.980785 0.195091 5.450871
v -0.923879 0.382684 5.450871
v -0.831469 0.555571 5.450871
v -0.707106 0.707107 5.450871
v -0.555569 0.831470 5.450871
v -0.382682 0.923880 5.450871
v -0.195089 0.980785 5.450871
v -0.000000 1.000000 5.450871
v 0.195090 0.980785 5.450871
v 0.382683 0.923879 5.450871
v 0.555570 0.831469 5.450871
v 0.707107 0.707106 5.450871
v 0.831470 0.555570 5.450871
v 0.923879 0.382683 5.450871
v 0.980785 0.195090 5.450871
v 1.000000 -0.000000 5.450871
v 0.980785 -0.195090 5.450871
v 0.923879 -0.382684 5.450871
v 0.831470 -0.555570 5.450871
v 0.707107 -0.707107 5.450871
v 0.555570 -0.831470 5.450871
v 0.382683 -0.923880 5.450871
v 0.195090 -0.980786 5.450871
v -0.000000 -1.000000 5.450871
v -0.195091 -0.980785 5.450871
v -0.382684 -0.923880 5.450871
v -0.555571 -0.831470 5.450871
v -0.707107 -0.707107 5.450871
v -0.831470 -0.555570 5.450871
v -0.923880 -0.382683 5.450871
v -0.980786 -0.195090 5.450871
v -1.000000 0.000001 5.450871
v -0.980785 0.195091 5.450871
v -0.923879 0.382684 5.450871
v -0.831469 0.555571 5.450871
v -0.707106 0.707107 5.450871
v -0.555569 0.831470 5.450871
v -0.382682 0.923880 5.450871
v -0.195089 0.980785 5.450871
v -0.000000 1.000000 -0.852329
v 0.195090 0.980785 -0.852329
v 0.382683 0.923879 -0.852329
v 0.555570 0.831469 -0.852329
v 0.707107 0.707106 -0.852329
v 0.831470 0.555570 -0.852329
v 0.923879 0.382683 -0.852329
v 0.980785 0.195090 -0.852329
v 1.000000 -0.000000 -0.852329
v 0.980785 -0.195090 -0.852329
v 0.923879 -0.382684 -0.852329
v 0.831470 -0.555570 -0.852329
v 0.707107 -0.707107 -0.852329
v 0.555570 -0.831470 -0.852329
v 0.382683 -0.923880 -0.852329
v 0.195090 -0.980786 -0.852329
v -0.000000 -1.000000 -0.852329
v -0.195091 -0.980785 -0.852329
v -0.382684 -0.923880 -0.852329
v -0.555571 -0.831470 -0.852329
v -0.707107 -0.707107 -0.852329
v -0.831470 -0.555570 -0.852329
v -0.923880 -0.382683 -0.852329
v -0.980786 -0.195090 -0.852329
v -1.000000 0.000001 -0.852329
v -0.980785 0.195091 -0.852329
v -0.923879 0.382684 -0.852329
v -0.831469 0.555571 -0.852329
v -0.707106 0.707107 -0.852329
v -0.555569 0.831470 -0.852329
v -0.382682 0.923880 -0.852329
v -0.195089 0.980785 -0.852329
v -0.000000 1.000000 -0.852329
v 0.195090 0.980785 -0.852329
v 0.382683 0.923879 -0.852329
v 0.555570 0.831469 -0.852329
v 0.707107 0.707106 -0.852329
v 0.831470 0.555570 -0.852329
v 0.923879 0.382683 -0.852329
v 0.980785 0.195090 -0.852329
v 1.000000 -0.000000 -0.852329
v 0.980785 -0.195090 -0.852329
v 0.923879 -0.382684 -0.852329
v 0.831470 -0.555570 -0.852329
v 0.707107 -0.707107 -0.852329
v 0.555570 -0.831470 -0.852329
v 0.382683 -0.923880 -0.852329
v 0.195090 -0.980786 -0.852329
v -0.000000 -1.000000 -0.852329
v -0.195091 -0.980785 -0.852329
v -0.382684 -0.923880 -0.852329
v -0.555571 -0.831470 -0.852329
v -0.707107 -0.707107 -0.852329
v -0.831470 -0.555570 -0.852329
v -0.923880 -0.382683 -0.852329
v -0.980786 -0.195090 -0.852329
v -1.000000 0.000001 -0.852329
v -0.980785 0.195091 -0.852329
v -0.923879 0.382684 -0.852329
v -0.831469 0.555571 -0.852329
v -0.707106 0.707107 -0.852329
v -0.555569 0.831470 -0.852329
v -0.382682 0.923880 -0.852329
v -0.195089 0.980785 -0.852329
v -0.000000 1.942308 -3.915298
v 0.378925 1.904987 -3.915298
v 0.743289 1.794458 -3.915298
v 1.079088 1.614970 -3.915298
v 1.373419 1.373419 -3.915298
v 1.614970 1.079088 -3.915298
v 1.794459 0.743289 -3.915298
v 1.904987 0.378925 -3.915298
v 1.942308 -0.000000 -3.915298
v 1.904987 -0.378926 -3.915298
v 1.794459 -0.743289 -3.915298
v 1.614970 -1.079089 -3.915298
v 1.373419 -1.373420 -3.915298
v 1.079088 -1.614971 -3.915298
v 0.743289 -1.794460 -3.915298
v 0.378925 -1.904988 -3.915298
v -0.000001 -1.942309 -3.915298
v -0.378927 -1.904988 -3.915298
v -0.743290 -1.794459 -3.915298
v -1.079090 -1.614970 -3.915298
v -1.373420 -1.373419 -3.915298
v -1.614971 -1.079088 -3.915298
v -1.794460 -0.743288 -3.915298
v -1.904988 -0.378924 -3.915298
v -1.942309 0.000001 -3.915298
v -1.904987 0.378927 -3.915298
v -1.794458 0.743291 -3.915298
v -1.614969 1.079090 -3.915298
v -1.373418 1.373420 -3.915298
v -1.079087 1.614971 -3.915298
v -0.743287 1.794459 -3.915298
v -0.378923 1.904987 -3.915298
v -0.000000 1.000000 5.450871
v 0.195090 0.980785 5.450871
v 0.382683 0.923879 5.450871
v 0.555570 0.831469 5.450871
v 0.707107 0.707106 5.450871
v 0.831470 0.555570 5.450871
v 0.923879 0.382683 5.450871
v 0.980785 0.195090 5.450871
v 1.000000 -0.000000 5.450871
v 0.980785 -0.195090 5.450871
v 0.923879 -0.382684 5.450871
v 0.831470 -0.555570 5.450871
v 0.707107 -0.707107 5.450871
v 0.555570 -0.831470 5.450871
v 0.382683 -0.923880 5.450871
v 0.195090 -0.980786 5.450871
v -0.000000 -1.000000 5.450871
v -0.195091 -0.980785 5.450871
v -0.382684 -0.923880 5.450871
v -0.555571 -0.831470 5.450871
v -0.707107 -0.707107 5.450871
v -0.831470 -0.555570 5.450871
v -0.923880 -0.382683 5.450871
v -0.980786 -0.195090 5.450871
v -1.000000 0.000001 5.450871
v -0.980785 0.195091 5.450871
v -0.923879 0.382684 5.450871
v -0.831469 0.555571 5.450871
v -0.707106 0.707107 5.450871
v -0.555569 0.831470 5.450871
v -0.382682 0.923880 5.450871
v -0.195089 0.980785 5.450871
v -0.000000 0.920258 5.450871
v 0.179533 0.902575 5.450871
v 0.352167 0.850207 5.450871
v 0.511268 0.765166 5.450871
v 0.650720 0.650720 5.450871
v 0.765166 0.511267 5.450871
v 0.850207 0.352167 5.450871
v 0.902575 0.179533 5.450871
v 0.920258 -0.000000 5.450871
v 0.902575 -0.179534 5.450871
v 0.850207 -0.352168 5.450871
v 0.765166 -0.511268 5.450871
v 0.650720 -0.650721 5.450871
v 0.511268 -0.765167 5.450871
v 0.352167 -0.850208 5.450871
v 0.179533 -0.902576 5.450871
v -0.000000 -0.920258 5.450871
v -0.179534 -0.902576 5.450871
v -0.352168 -0.850207 5.450871
v -0.511268 -0.765166 5.450871
v -0.650721 -0.650720 5.450871
v -0.765167 -0.511268 5.450871
v -0.850208 -0.352167 5.450871
v -0.902576 -0.179533 5.450871
v -0.920258 0.000001 5.450871
v -0.902575 0.179534 5.450871
v -0.850207 0.352168 5.450871
v -0.765166 0.511268 5.450871
v -0.650720 0.650721 5.450871
v -0.511267 0.765167 5.450871
v -0.352166 0.850208 5.450871
v -0.179532 0.902575 5.450871
v -0.000000 0.920258 -0.076416
v 0.179533 0.902575 -0.076416
v 0.352167 0.850207 -0.076416
v 0.511268 0.765166 -0.076416
v 0.650720 0.650720 -0.076416
v 0.765166 0.511267 -0.076416
v 0.850207 0.352167 -0.076416
v 0.902575 0.179533 -0.076416
v 0.920258 -0.000000 -0.076416
v 0.902575 -0.179534 -0.076416
v 0.850207 -0.352168 -0.076416
v 0.765166 -0.511268 -0.076416
v 0.650720 -0.650721 -0.076416
v 0.511268 -0.765167 -0.076416
v 0.352167 -0.850208 -0.076416
v 0.179533 -0.902576 -0.076416
v -0.000000 -0.920258 -0.076416
v -0.179534 -0.902576 -0.076416
v -0.352168 -0.850207 -0.076416
v -0.511268 -0.765166 -0.076416
v -0.650721 -0.650720 -0.076416
v -0.765167 -0.511268 -0.076416
v -0.850208 -0.352167 -0.076416
v -0.902576 -0.179533 -0.076416
v -0.920258 0.000001 -0.076416
v -0.902575 0.179534 -0.076416
v -0.850207 0.352168 -0.076416
v -0.765166 0.511268 -0.076416
v -0.650720 0.650721 -0.076416
v -0.511267 0.765167 -0.076416
v -0.352166 0.850208 -0.076416
v -0.179532 0.902575 -0.076416
v -0.000000 1.750414 -3.915298
v 0.341489 1.716780 -3.915298
v 0.669855 1.617172 -3.915298
v 0.972478 1.455416 -3.915298
v 1.237730 1.237730 -3.915298
v 1.455417 0.972478 -3.915298
v 1.617172 0.669854 -3.915298
v 1.716781 0.341488 -3.915298
v 1.750414 -0.000000 -3.915298
v 1.716781 -0.341489 -3.915298
v 1.617172 -0.669855 -3.915298
v 1.455417 -0.972479 -3.915298
v 1.237730 -1.237731 -3.915298
v 0.972478 -1.455417 -3.915298
v 0.669854 -1.617173 -3.915298
v 0.341488 -1.716782 -3.915298
v -0.000001 -1.750415 -3.915298
v -0.341490 -1.716781 -3.915298
v -0.669856 -1.617173 -3.915298
v -0.972479 -1.455417 -3.915298
v -1.237731 -1.237730 -3.915298
v -1.455418 -0.972478 -3.915298
v -1.617173 -0.669854 -3.915298
v -1.716781 -0.341488 -3.915298
v -1.750415 0.000001 -3.915298
v -1.716781 0.341490 -3.915298
v -1.617172 0.669856 -3.915298
v -1.455416 0.972480 -3.915298
v -1.237729 1.237731 -3.915298
v -0.972477 1.455417 -3.915298
v -0.669853 1.617173 -3.915298
v -0.341487 1.716781 -3.915298
v -0.000000 1.750414 -4.416397
v 0.341489 1.716780 -4.416397
v 0.669855 1.617172 -4.416397
v 0.972478 1.455416 -4.416397
v 1.237730 1.237730 -4.416397
v 1.455417 0.972478 -4.416397
v 1.617172 0.669854 -4.416397
v 1.716781 0.341488 -4.416397
v 1.750414 -0.000000 -4.416397
v 1.716781 -0.341489 -4.416397
v 1.617172 -0.669855 -4.416397
v 1.455417 -0.972479 -4.416397
v 1.237730 -1.237731 -4.416397
v 0.972478 -1.455417 -4.416397
v 0.669854 -1.617173 -4.416397
v 0.341488 -1.716782 -4.416397
v -0.000001 -1.750415 -4.416397
v -0.341490 -1.716781 -4.416397
v -0.669856 -1.617172 -4.416397
v -0.972479 -1.455417 -4.416397
v -1.237731 -1.237730 -4.416397
v -1.455418 -0.972478 -4.416397
v -1.617173 -0.669854 -4.416397
v -1.716781 -0.341488 -4.416397
v -1.750415 0.000001 -4.416397
v -1.716781 0.341490 -4.416397
v -1.617172 0.669856 -4.416397
v -1.455416 0.972480 -4.416397
v -1.237729 1.237731 -4.416397
v -0.972477 1.455418 -4.416397
v -0.669853 1.617173 -4.416397
v -0.341487 1.716781 -4.416397
v -0.000000 1.591264 -4.416397
v 0.310440 1.560688 -4.416397
v 0.608950 1.470136 -4.416397
v 0.884059 1.323088 -4.416397
v 1.125194 1.125194 -4.416397
v 1.323088 0.884059 -4.416397
v 1.470137 0.608950 -4.416397
v 1.560689 0.310440 -4.416397
v 1.591264 -0.000000 -4.416397
v 1.560689 -0.310441 -4.416397
v 1.470137 -0.608951 -4.416397
v 1.323088 -0.884060 -4.416397
v 1.125194 -1.125195 -4.416397
v 0.884059 -1.323089 -4.416397
v 0.608950 -1.470137 -4.416397
v 0.310440 -1.560690 -4.416397
v -0.000001 -1.591265 -4.416397
v -0.310441 -1.560689 -4.416397
v -0.608952 -1.470137 -4.416397
v -0.884060 -1.323088 -4.416397
v -1.125195 -1.125194 -4.416397
v -1.323089 -0.884059 -4.416397
v -1.470138 -0.608950 -4.416397
v -1.560689 -0.310439 -4.416397
v -1.591265 0.000001 -4.416397
v -1.560689 0.310441 -4.416397
v -1.470136 0.608952 -4.416397
v -1.323087 0.884060 -4.416397
v -1.125193 1.125195 -4.416397
v -0.884058 1.323089 -4.416397
v -0.608949 1.470137 -4.416397
v -0.310438 1.560689 -4.416397
v -0.000000 1.591264 -3.358988
v 0.310440 1.560688 -3.358988
v 0.608950 1.470136 -3.358988
v 0.884059 1.323088 -3.358988
v 1.125194 1.125193 -3.358988
v 1.323088 0.884059 -3.358988
v 1.470137 0.608950 -3.358988
v 1.560689 0.310440 -3.358988
v 1.591264 -0.000000 -3.358988
v 1.560689 -0.310441 -3.358988
v 1.470137 -0.608951 -3.358988
v 1.323088 -0.884060 -3.358988
v 1.125194 -1.125195 -3.358988
v 0.884059 -1.323089 -3.358988
v 0.608950 -1.470138 -3.358988
v 0.310440 -1.560690 -3.358988
v -0.000001 -1.591265 -3.358988
v -0.310441 -1.560689 -3.358988
v -0.608952 -1.470137 -3.358988
v -0.884060 -1.323088 -3.358988
v -1.125195 -1.125194 -3.358988
v -1.323089 -0.884059 -3.358988
v -1.470138 -0.608950 -3.358988
v -1.560689 -0.310439 -3.358988
v -1.591265 0.000001 -3.358988
v -1.560689 0.310441 -3.358988
v -1.470136 0.608952 -3.358988
v -1.323087 0.884060 -3.358988
v -1.125193 1.125195 -3.358988
v -0.884058 1.323089 -3.358988
v -0.608949 1.470137 -3.358988
v -0.310438 1.560689 -3.358988
vn 0.0000 0.0000 1.0000
vn 0.7730 -0.6344 0.0000
vn -0.9569 0.2903 0.0000
vn 0.6344 -0.7730 0.0000
vn -0.8819 0.4714 0.0000
vn 0.4714 -0.8819 0.0000
vn 0.0980 0.9952 0.0000
vn -0.7730 0.6344 0.0000
vn 0.2903 -0.9569 0.0000
vn 0.2903 0.9569 0.0000
vn -0.6344 0.7730 0.0000
vn 0.0980 -0.9952 0.0000
vn 0.4714 0.8819 0.0000
vn -0.4714 0.8819 0.0000
vn -0.0980 -0.9952 0.0000
vn 0.6344 0.7730 0.0000
vn -0.2903 0.9569 0.0000
vn -0.2903 -0.9569 0.0000
vn 0.7730 0.6344 0.0000
vn -0.0980 0.9952 0.0000
vn -0.4714 -0.8819 0.0000
vn 0.8819 0.4714 0.0000
vn -0.6344 -0.7730 0.0000
vn 0.9569 0.2903 0.0000
vn -0.7730 -0.6344 0.0000
vn 0.9952 0.0980 0.0000
vn -0.8819 -0.4714 0.0000
vn 0.9952 -0.0980 0.0000
vn -0.9569 -0.2903 0.0000
vn 0.9569 -0.2903 0.0000
vn -0.9952 -0.0980 0.0000
vn 0.8819 -0.4714 0.0000
vn -0.9952 0.0980 0.0000
vn -0.2776 -0.9150 0.2928
vn 0.7391 0.6066 0.2928
vn -0.0937 0.9516 0.2928
vn -0.4507 -0.8433 0.2928
vn 0.8433 0.4507 0.2928
vn -0.6066 -0.7391 0.2928
vn 0.9150 0.2776 0.2928
vn -0.7391 -0.6066 0.2928
vn 0.9516 0.0937 0.2928
vn -0.8433 -0.4507 0.2928
vn 0.9516 -0.0937 0.2928
vn -0.9150 -0.2776 0.2928
vn 0.9150 -0.2776 0.2928
vn -0.9516 -0.0937 0.2928
vn 0.8433 -0.4507 0.2928
vn -0.9516 0.0937 0.2928
vn 0.7391 -0.6066 0.2928
vn -0.9150 0.2776 0.2928
vn 0.6066 -0.7391 0.2928
vn -0.8433 0.4507 0.2928
vn 0.4507 -0.8433 0.2928
vn 0.0937 0.9516 0.2928
vn -0.7391 0.6066 0.2928
vn 0.2776 -0.9150 0.2928
vn 0.2776 0.9150 0.2928
vn -0.6066 0.7391 0.2928
vn 0.0937 -0.9516 0.2928
vn 0.4507 0.8433 0.2928
vn -0.4507 0.8433 0.2928
vn -0.0937 -0.9516 0.2928
vn 0.6066 0.7391 0.2928
vn -0.2776 0.9150 0.2928
vn 0.0000 0.0000 -1.0000
usemtl czarny
s off
f 17//1 18//1 50//1 49//1
f 4//1 5//1 37//1 36//1
f 31//1 32//1 64//1 63//1
f 18//1 19//1 51//1 50//1
f 5//1 6//1 38//1 37//1
f 32//1 1//1 33//1 64//1
f 19//1 20//1 52//1 51//1
f 6//1 7//1 39//1 38//1
f 20//1 21//1 53//1 52//1
f 7//1 8//1 40//1 39//1
f 21//1 22//1 54//1 53//1
f 8//1 9//1 41//1 40//1
f 22//1 23//1 55//1 54//1
f 9//1 10//1 42//1 41//1
f 23//1 24//1 56//1 55//1
f 10//1 11//1 43//1 42//1
f 24//1 25//1 57//1 56//1
f 11//1 12//1 44//1 43//1
f 25//1 26//1 58//1 57//1
f 12//1 13//1 45//1 44//1
f 26//1 27//1 59//1 58//1
f 13//1 14//1 46//1 45//1
f 27//1 28//1 60//1 59//1
f 14//1 15//1 47//1 46//1
f 1//1 2//1 34//1 33//1
f 28//1 29//1 61//1 60//1
f 15//1 16//1 48//1 47//1
f 2//1 3//1 35//1 34//1
f 29//1 30//1 62//1 61//1
f 16//1 17//1 49//1 48//1
f 3//1 4//1 36//1 35//1
f 30//1 31//1 63//1 62//1
f 44//2 45//2 77//2 76//2
f 58//3 59//3 91//3 90//3
f 45//4 46//4 78//4 77//4
f 59//5 60//5 92//5 91//5
f 46//6 47//6 79//6 78//6
f 33//7 34//7 66//7 65//7
f 60//8 61//8 93//8 92//8
f 47//9 48//9 80//9 79//9
f 34//10 35//10 67//10 66//10
f 61//11 62//11 94//11 93//11
f 48//12 49//12 81//12 80//12
f 35//13 36//13 68//13 67//13
f 62//14 63//14 95//14 94//14
f 49//15 50//15 82//15 81//15
f 36//16 37//16 69//16 68//16
f 63//17 64//17 96//17 95//17
f 50//18 51//18 83//18 82//18
f 37//19 38//19 70//19 69//19
f 64//20 33//20 65//20 96//20
f 51//21 52//21 84//21 83//21
f 38//22 39//22 71//22 70//22
f 52//23 53//23 85//23 84//23
f 39//24 40//24 72//24 71//24
f 53//25 54//25 86//25 85//25
f 40//26 41//26 73//26 72//26
f 54//27 55//27 87//27 86//27
f 41//28 42//28 74//28 73//28
f 55//29 56//29 88//29 87//29
f 42//30 43//30 75//30 74//30
f 56//31 57//31 89//31 88//31
f 43//32 44//32 76//32 75//32
f 57//33 58//33 90//33 89//33
f 79//1 80//1 112//1 111//1
f 66//1 67//1 99//1 98//1
f 93//1 94//1 126//1 125//1
f 80//1 81//1 113//1 112//1
f 67//1 68//1 100//1 99//1
f 94//1 95//1 127//1 126//1
f 81//1 82//1 114//1 113//1
f 68//1 69//1 101//1 100//1
f 95//1 96//1 128//1 127//1
f 82//1 83//1 115//1 114//1
f 69//1 70//1 102//1 101//1
f 96//1 65//1 97//1 128//1
f 83//1 84//1 116//1 115//1
f 70//1 71//1 103//1 102//1
f 84//1 85//1 117//1 116//1
f 71//1 72//1 104//1 103//1
f 85//1 86//1 118//1 117//1
f 72//1 73//1 105//1 104//1
f 86//1 87//1 119//1 118//1
f 73//1 74//1 106//1 105//1
f 87//1 88//1 120//1 119//1
f 74//1 75//1 107//1 106//1
f 88//1 89//1 121//1 120//1
f 75//1 76//1 108//1 107//1
f 89//1 90//1 122//1 121//1
f 76//1 77//1 109//1 108//1
f 90//1 91//1 123//1 122//1
f 77//1 78//1 110//1 109//1
f 91//1 92//1 124//1 123//1
f 78//1 79//1 111//1 110//1
f 65//1 66//1 98//1 97//1
f 92//1 93//1 125//1 124//1
f 114//34 115//34 147//34 146//34
f 101//35 102//35 134//35 133//35
f 128//36 97//36 129//36 160//36
f 115//37 116//37 148//37 147//37
f 102//38 103//38 135//38 134//38
f 116//39 117//39 149//39 148//39
f 103//40 104//40 136//40 135//40
f 117//41 118//41 150//41 149//41
f 104//42 105//42 137//42 136//42
f 118//43 119//43 151//43 150//43
f 105//44 106//44 138//44 137//44
f 119//45 120//45 152//45 151//45
f 106//46 107//46 139//46 138//46
f 120//47 121//47 153//47 152//47
f 107//48 108//48 140//48 139//48
f 121//49 122//49 154//49 153//49
f 108//50 109//50 141//50 140//50
f 122//51 123//51 155//51 154//51
f 109//52 110//52 142//52 141//52
f 123//53 124//53 156//53 155//53
f 110//54 111//54 143//54 142//54
f 97//55 98//55 130//55 129//55
f 124//56 125//56 157//56 156//56
f 111//57 112//57 144//57 143//57
f 98//58 99//58 131//58 130//58
f 125//59 126//59 158//59 157//59
f 112//60 113//60 145//60 144//60
f 99//61 100//61 132//61 131//61
f 126//62 127//62 159//62 158//62
f 113//63 114//63 146//63 145//63
f 100//64 101//64 133//64 132//64
f 127//65 128//65 160//65 159//65
f 45//1 44//1 172//1 173//1
f 59//1 58//1 186//1 187//1
f 46//1 45//1 173//1 174//1
f 60//1 59//1 187//1 188//1
f 47//1 46//1 174//1 175//1
f 34//1 33//1 161//1 162//1
f 61//1 60//1 188//1 189//1
f 48//1 47//1 175//1 176//1
f 35//1 34//1 162//1 163//1
f 62//1 61//1 189//1 190//1
f 49//1 48//1 176//1 177//1
f 36//1 35//1 163//1 164//1
f 63//1 62//1 190//1 191//1
f 50//1 49//1 177//1 178//1
f 37//1 36//1 164//1 165//1
f 64//1 63//1 191//1 192//1
f 51//1 50//1 178//1 179//1
f 38//1 37//1 165//1 166//1
f 33//1 64//1 192//1 161//1
f 52//1 51//1 179//1 180//1
f 39//1 38//1 166//1 167//1
f 53//1 52//1 180//1 181//1
f 40//1 39//1 167//1 168//1
f 54//1 53//1 181//1 182//1
f 41//1 40//1 168//1 169//1
f 55//1 54//1 182//1 183//1
f 42//1 41//1 169//1 170//1
f 56//1 55//1 183//1 184//1
f 43//1 42//1 170//1 171//1
f 57//1 56//1 184//1 185//1
f 44//1 43//1 171//1 172//1
f 58//1 57//1 185//1 186//1
f 185//1 184//1 216//1 217//1
f 172//1 171//1 203//1 204//1
f 186//1 185//1 217//1 218//1
f 173//1 172//1 204//1 205//1
f 187//1 186//1 218//1 219//1
f 174//1 173//1 205//1 206//1
f 188//1 187//1 219//1 220//1
f 175//1 174//1 206//1 207//1
f 162//1 161//1 193//1 194//1
f 189//1 188//1 220//1 221//1
f 176//1 175//1 207//1 208//1
f 163//1 162//1 194//1 195//1
f 190//1 189//1 221//1 222//1
f 177//1 176//1 208//1 209//1
f 164//1 163//1 195//1 196//1
f 191//1 190//1 222//1 223//1
f 178//1 177//1 209//1 210//1
f 165//1 164//1 196//1 197//1
f 192//1 191//1 223//1 224//1
f 179//1 178//1 210//1 211//1
f 166//1 165//1 197//1 198//1
f 161//1 192//1 224//1 193//1
f 180//1 179//1 211//1 212//1
f 167//1 166//1 198//1 199//1
f 181//1 180//1 212//1 213//1
f 168//1 167//1 199//1 200//1
f 182//1 181//1 213//1 214//1
f 169//1 168//1 200//1 201//1
f 183//1 182//1 214//1 215//1
f 170//1 169//1 201//1 202//1
f 184//1 183//1 215//1 216//1
f 171//1 170//1 202//1 203//1
f 208//17 207//17 239//17 240//17
f 195//18 194//18 226//18 227//18
f 222//4 221//4 253//4 254//4
f 209//20 208//20 240//20 241//20
f 196//21 195//21 227//21 228//21
f 223//6 222//6 254//6 255//6
f 210//7 209//7 241//7 242//7
f 197//23 196//23 228//23 229//23
f 224//9 223//9 255//9 256//9
f 211//10 210//10 242//10 243//10
f 198//25 197//25 229//25 230//25
f 193//12 224//12 256//12 225//12
f 212//13 211//13 243//13 244//13
f 199//27 198//27 230//27 231//27
f 213//16 212//16 244//16 245//16
f 200//29 199//29 231//29 232//29
f 214//19 213//19 245//19 246//19
f 201//31 200//31 232//31 233//31
f 215//22 214//22 246//22 247//22
f 202//33 201//33 233//33 234//33
f 216//24 215//24 247//24 248//24
f 203//3 202//3 234//3 235//3
f 217//26 216//26 248//26 249//26
f 204//5 203//5 235//5 236//5
f 218//28 217//28 249//28 250//28
f 205//8 204//8 236//8 237//8
f 219//30 218//30 250//30 251//30
f 206//11 205//11 237//11 238//11
f 220//32 219//32 251//32 252//32
f 207//14 206//14 238//14 239//14
f 194//15 193//15 225//15 226//15
f 221//2 220//2 252//2 253//2
f 226//1 225//1 256//1 255//1 254//1 253//1 252//1 251//1 250//1 249//1 248//1 247//1 246//1 245//1 244//1 243//1 242//1 241//1 240//1 239//1 238//1 237//1 236//1 235//1 234//1 233//1 232//1 231//1 230//1 229//1 228//1 227//1
f 131//66 132//66 260//66 259//66
f 158//66 159//66 287//66 286//66
f 145//66 146//66 274//66 273//66
f 132//66 133//66 261//66 260//66
f 159//66 160//66 288//66 287//66
f 146//66 147//66 275//66 274//66
f 133//66 134//66 262//66 261//66
f 160//66 129//66 257//66 288//66
f 147//66 148//66 276//66 275//66
f 134//66 135//66 263//66 262//66
f 148//66 149//66 277//66 276//66
f 135//66 136//66 264//66 263//66
f 149//66 150//66 278//66 277//66
f 136//66 137//66 265//66 264//66
f 150//66 151//66 279//66 278//66
f 137//66 138//66 266//66 265//66
f 151//66 152//66 280//66 279//66
f 138//66 139//66 267//66 266//66
f 152//66 153//66 281//66 280//66
f 139//66 140//66 268//66 267//66
f 153//66 154//66 282//66 281//66
f 140//66 141//66 269//66 268//66
f 154//66 155//66 283//66 282//66
f 141//66 142//66 270//66 269//66
f 155//66 156//66 284//66 283//66
f 142//66 143//66 271//66 270//66
f 129//66 130//66 258//66 257//66
f 156//66 157//66 285//66 284//66
f 143//66 144//66 272//66 271//66
f 130//66 131//66 259//66 258//66
f 157//66 158//66 286//66 285//66
f 144//66 145//66 273//66 272//66
f 283//5 284//5 316//5 315//5
f 270//6 271//6 303//6 302//6
f 257//7 258//7 290//7 289//7
f 284//8 285//8 317//8 316//8
f 271//9 272//9 304//9 303//9
f 258//10 259//10 291//10 290//10
f 285//11 286//11 318//11 317//11
f 272//12 273//12 305//12 304//12
f 259//13 260//13 292//13 291//13
f 286//14 287//14 319//14 318//14
f 273//15 274//15 306//15 305//15
f 260//16 261//16 293//16 292//16
f 287//17 288//17 320//17 319//17
f 274//18 275//18 307//18 306//18
f 261//19 262//19 294//19 293//19
f 288//20 257//20 289//20 320//20
f 275//21 276//21 308//21 307//21
f 262//22 263//22 295//22 294//22
f 276//23 277//23 309//23 308//23
f 263//24 264//24 296//24 295//24
f 277//25 278//25 310//25 309//25
f 264//26 265//26 297//26 296//26
f 278//27 279//27 311//27 310//27
f 265//28 266//28 298//28 297//28
f 279//29 280//29 312//29 311//29
f 266//30 267//30 299//30 298//30
f 280//31 281//31 313//31 312//31
f 267//32 268//32 300//32 299//32
f 281//33 282//33 314//33 313//33
f 268//2 269//2 301//2 300//2
f 282//3 283//3 315//3 314//3
f 269//4 270//4 302//4 301//4
f 291//66 292//66 324//66 323//66
f 318//66 319//66 351//66 350//66
f 305//66 306//66 338//66 337//66
f 292//66 293//66 325//66 324//66
f 319//66 320//66 352//66 351//66
f 306//66 307//66 339//66 338//66
f 293//66 294//66 326//66 325//66
f 320//66 289//66 321//66 352//66
f 307//66 308//66 340//66 339//66
f 294//66 295//66 327//66 326//66
f 308//66 309//66 341//66 340//66
f 295//66 296//66 328//66 327//66
f 309//66 310//66 342//66 341//66
f 296//66 297//66 329//66 328//66
f 310//66 311//66 343//66 342//66
f 297//66 298//66 330//66 329//66
f 311//66 312//66 344//66 343//66
f 298//66 299//66 331//66 330//66
f 312//66 313//66 345//66 344//66
f 299//66 300//66 332//66 331//66
f 313//66 314//66 346//66 345//66
f 300//66 301//66 333//66 332//66
f 314//66 315//66 347//66 346//66
f 301//66 302//66 334//66 333//66
f 315//66 316//66 348//66 347//66
f 302//66 303//66 335//66 334//66
f 289//66 290//66 322//66 321//66
f 316//66 317//66 349//66 348//66
f 303//66 304//66 336//66 335//66
f 290//66 291//66 323//66 322//66
f 317//66 318//66 350//66 349//66
f 304//66 305//66 337//66 336//66
f 341//19 342//19 374//19 373//19
f 328//31 329//31 361//31 360//31
f 342//22 343//22 375//22 374//22
f 329//33 330//33 362//33 361//33
f 343//24 344//24 376//24 375//24
f 330//3 331//3 363//3 362//3
f 344//26 345//26 377//26 376//26
f 331//5 332//5 364//5 363//5
f 345//28 346//28 378//28 377//28
f 332//8 333//8 365//8 364//8
f 346//30 347//30 379//30 378//30
f 333//11 334//11 366//11 365//11
f 347//32 348//32 380//32 379//32
f 334//14 335//14 367//14 366//14
f 321//15 322//15 354//15 353//15
f 348//2 349//2 381//2 380//2
f 335//17 336//17 368//17 367//17
f 322//18 323//18 355//18 354//18
f 349//4 350//4 382//4 381//4
f 336//20 337//20 369//20 368//20
f 323//21 324//21 356//21 355//21
f 350//6 351//6 383//6 382//6
f 337//7 338//7 370//7 369//7
f 324//23 325//23 357//23 356//23
f 351//9 352//9 384//9 383//9
f 338//10 339//10 371//10 370//10
f 325//25 326//25 358//25 357//25
f 352//12 321//12 353//12 384//12
f 339//13 340//13 372//13 371//13
f 326//27 327//27 359//27 358//27
f 340//16 341//16 373//16 372//16
f 327//29 328//29 360//29 359//29
f 354//66 355//66 356//66 357//66 358//66 359//66 360//66 361//66 362//66 363//66 364//66 365//66 366//66 367//66 368//66 369//66 370//66 371//66 372//66 373//66 374//66 375//66 376//66 377//66 378//66 379//66 380//66 381//66 382//66 383//66 384//66 353//66
